<svg width="258" height="406" viewBox="0 0 258 406" fill="none" xmlns="http://www.w3.org/2000/svg">
<path d="M128.795 266.826L3.29382 201.793L128.795 0L255.146 201.793L128.807 266.826H128.795ZM16.0139 198.357L128.807 256.804L242.378 198.345L128.807 16.9657L16.0018 198.345L16.0139 198.357Z" fill="#0F0F0F"/>
<path d="M132.299 8.38351H125.344V261.716H132.299V8.38351Z" fill="#0F0F0F"/>
<path d="M248.352 200.947L128.822 148.219L10.1055 200.947L9.24377 199.08L128.822 145.984L249.214 199.08L248.352 200.947Z" fill="#0F0F0F"/>
<path d="M128.833 405.031L0.964722 227.967L128.845 302.429L257.526 228.015L128.821 405.031H128.833ZM32.9105 256.87L128.857 389.73L225.496 256.822L128.845 312.713L32.9227 256.858L32.9105 256.87Z" fill="#0F0F0F"/>
<path d="M129.902 307.592H127.815V397.402H129.902V307.592Z" fill="#0F0F0F"/>
<path d="M28.9747 404.018H2.72131V376.102H4.80896V401.973H28.9747V404.018Z" fill="#0F0F0F"/>
<path d="M30.1853 405.179H1.50452V374.885H6.01965V400.756H30.1853V405.179Z" fill="#0F0F0F"/>
<path d="M1.2168 28.0126V2.29654H29.7155V4.34146H3.29229V28.0126H1.2168Z" fill="#0F0F0F"/>
<path d="M4.50299 29.1735H0V1.0797H30.9262V5.50242H4.50299V29.1735Z" fill="#0F0F0F"/>
<path d="M226.967 404.018H253.221V376.102H251.133V401.973H226.967V404.018Z" fill="#0F0F0F"/>
<path d="M254.431 405.179H225.75V400.756H249.916V374.885H254.431V405.179Z" fill="#0F0F0F"/>
<path d="M253.962 28.0126V2.29654H225.463V4.34146H251.874V28.0126H253.962Z" fill="#0F0F0F"/>
<path d="M255.169 29.1735H250.654V5.50242H224.243V1.0797H255.169V29.1735Z" fill="#0F0F0F"/>
</svg>
