<svg width="1440" height="450" viewBox="0 0 1440 450" fill="none" xmlns="http://www.w3.org/2000/svg">
<rect width="1440" height="450" fill="white"/>
<path d="M898.183 21.5069V428.493H849.451V202.589H848.261L824.496 428.493H782.306L759.731 202.589H758.541V428.493H709.215V21.5069H784.685L802.515 204.325H803.705L822.724 21.5069H898.195H898.183Z" fill="#0F0F0F"/>
<path d="M971.291 21.5069V428.493H912.461V21.5069H971.291Z" fill="#0F0F0F"/>
<path d="M1044.36 21.5069V385.407H1092.49V428.493H985.527V21.5069H1044.36Z" fill="#0F0F0F"/>
<path d="M1178.65 326.021H1153.7L1145.98 428.493H1095.46L1130.53 21.5069H1206L1243.43 428.493H1186.98L1178.66 326.021H1178.65ZM1157.27 282.935H1175.1L1167.38 179.298H1165.59L1157.28 282.935H1157.27Z" fill="#0F0F0F"/>
<path d="M1343.25 428.493L1302.25 202.589H1301.06V428.493H1251.73V21.5069H1317.09L1353.93 240.432H1354.52V21.5069H1408V428.493H1343.22H1343.25Z" fill="#0F0F0F"/>
<path d="M86.1434 70.0262V203.885H122.519V247.007H86.1434V379.974H136.028V428.493H31.9982V21.5069H131.817V70.0262H86.1313H86.1434Z" fill="#0F0F0F"/>
<path d="M271.228 70.0262H233.577V428.493H178.595V70.0262H140.107V21.5069H271.228V70.0262Z" fill="#0F0F0F"/>
<path d="M404.571 21.5069V428.493H350.426V246.852H333.931V428.493H279.786V21.5069H333.931V203.73H350.426V21.5069H404.571Z" fill="#0F0F0F"/>
<path d="M559.263 288.761L433.762 223.728L559.263 21.9354L685.614 223.728L559.275 288.761H559.263ZM446.482 220.292L559.275 278.739L672.846 220.281L559.275 38.9011L446.47 220.281L446.482 220.292Z" fill="#0F0F0F"/>
<path d="M562.767 30.3189H555.812V283.651H562.767V30.3189Z" fill="#0F0F0F"/>
<path d="M678.82 222.882L559.29 170.154L440.573 222.882L439.712 221.016L559.29 167.919L679.681 221.016L678.82 222.882Z" fill="#0F0F0F"/>
<path d="M559.301 426.966L431.433 249.903L559.313 324.364L687.994 249.95L559.289 426.966H559.301ZM463.378 278.805L559.325 411.665L655.964 278.757L559.313 334.648L463.391 278.793L463.378 278.805Z" fill="#0F0F0F"/>
<path d="M560.37 329.527H558.283V419.337H560.37V329.527Z" fill="#0F0F0F"/>
<path d="M459.443 425.953H433.189V398.038H435.277V423.908H459.443V425.953Z" fill="#0F0F0F"/>
<path d="M460.653 427.114H431.972V396.821H436.488V422.691H460.653V427.114Z" fill="#0F0F0F"/>
<path d="M431.685 49.948V24.2319H460.183V26.2769H433.76V49.948H431.685Z" fill="#0F0F0F"/>
<path d="M434.971 51.1089H430.468V23.0151H461.394V27.4378H434.971V51.1089Z" fill="#0F0F0F"/>
<path d="M657.435 425.953H683.688V398.038H681.601V423.908H657.435V425.953Z" fill="#0F0F0F"/>
<path d="M684.899 427.114H656.218V422.691H680.384V396.821H684.899V427.114Z" fill="#0F0F0F"/>
<path d="M684.43 49.948V24.2319H655.931V26.2769H682.342V49.948H684.43Z" fill="#0F0F0F"/>
<path d="M685.637 51.1089H681.122V27.4378H654.71V23.0151H685.637V51.1089Z" fill="#0F0F0F"/>
</svg>
