<svg width="699" height="407" viewBox="0 0 699 407" fill="none" xmlns="http://www.w3.org/2000/svg">
<path d="M188.968 0V406.986H140.236V181.082H139.047L115.282 406.986H73.0918L50.5161 181.082H49.3267V406.986H0V0H75.4707L93.3007 182.818H94.4901L113.51 0H188.98H188.968Z" fill="#0F0F0F"/>
<path d="M262.077 0V406.986H203.246V0H262.077Z" fill="#0F0F0F"/>
<path d="M335.143 0V363.9H383.28V406.986H276.313V0H335.143Z" fill="#0F0F0F"/>
<path d="M469.437 304.514H444.482L436.763 406.986H386.247L421.312 0H496.782L534.214 406.986H477.763L469.449 304.514H469.437ZM448.051 261.428H465.881L458.161 157.792H456.377L448.063 261.428H448.051Z" fill="#0F0F0F"/>
<path d="M634.034 406.986L593.033 181.082H591.844V406.986H542.517V0H607.878L644.715 218.925H645.309V0H698.787V406.986H634.01H634.034Z" fill="#0F0F0F"/>
</svg>
